<?xml version="1.0" encoding="UTF-8" standalone="no"?>
<!-- Created with Inkscape (http://www.inkscape.org/) -->

<svg
   width="32"
   height="32"
   viewBox="0 0 8.4666667 8.4666667"
   version="1.1"
   id="svg1"
   sodipodi:docname="archive.svg"
   inkscape:version="1.3 (0e150ed6c4, 2023-07-21)"
   xmlns:inkscape="http://www.inkscape.org/namespaces/inkscape"
   xmlns:sodipodi="http://sodipodi.sourceforge.net/DTD/sodipodi-0.dtd"
   xmlns="http://www.w3.org/2000/svg"
   xmlns:svg="http://www.w3.org/2000/svg">
  <sodipodi:namedview
     id="namedview1"
     pagecolor="#ffffff"
     bordercolor="#000000"
     borderopacity="0.25"
     inkscape:showpageshadow="2"
     inkscape:pageopacity="0.0"
     inkscape:pagecheckerboard="0"
     inkscape:deskcolor="#d1d1d1"
     inkscape:zoom="23.09375"
     inkscape:cx="13.077131"
     inkscape:cy="11.32341"
     inkscape:window-width="1920"
     inkscape:window-height="974"
     inkscape:window-x="-11"
     inkscape:window-y="-11"
     inkscape:window-maximized="1"
     inkscape:current-layer="svg1" />
  <defs
     id="defs1" />
  <path
     id="path2"
     style="fill:#e5da10;stroke:#9c940b;stroke-width:0.264583;stroke-linecap:round"
     d="M 4.0244861,3.701 V 2.5529809 c 0,-0.243523 -0.1960492,-0.4395721 -0.4395721,-0.4395721 H 2.0238143 c -0.2435229,0 -0.4395721,0.1960491 -0.4395721,0.4395721 V 3.701 Z" />
  <path
     id="rect1"
     style="fill:#e5da10;stroke:#9c940b;stroke-width:0.26458333;stroke-linecap:round;stroke-dasharray:none"
     d="M 2.0238143,3.1717422 H 4.0244861 V 2.6425755 h 2.4183665 c 0.243523,0 0.4395721,0.1960491 0.4395721,0.4395721 v 2.8315382 c 0,0.243523 -0.1960491,0.4395721 -0.4395721,0.4395721 H 2.0238143 c -0.2435229,0 -0.4395721,-0.1960491 -0.4395721,-0.4395721 V 3.6113143 c 0,-0.243523 0.1960492,-0.4395721 0.4395721,-0.4395721 z" />
  <path
     style="color:#000000;fill:#494949;stroke-dasharray:0.264583, 0.264583;-inkscape-stroke:none"
     d="M 1.984375,4.234375 V 4.4980469 H 2.2480469 V 4.234375 Z m 0.2636719,0.2636719 v 0.2636718 h 0.265625 V 4.4980469 Z m 0.265625,0 H 2.7773438 V 4.234375 H 2.5136719 Z m 0.2636719,0 v 0.2636718 h 0.265625 V 4.4980469 Z m 0.265625,0 H 3.3066406 V 4.234375 H 3.0429688 Z m 0.2636718,0 v 0.2636718 h 0.265625 V 4.4980469 Z m 0.265625,0 H 3.8359375 V 4.234375 H 3.5722656 Z m 0.2636719,0 v 0.2636718 h 0.265625 V 4.4980469 Z m 0.265625,0 H 4.3652344 V 4.234375 H 4.1015625 Z m 0.2636719,0 v 0.2636718 h 0.265625 V 4.4980469 Z m 0.265625,0 H 4.8945312 V 4.234375 H 4.6308594 Z m 0.2636718,0 v 0.2636718 h 0.265625 V 4.4980469 Z m 0.265625,0 H 5.4238281 V 4.234375 H 5.1601562 Z m 0.2636719,0 v 0.2636718 h 0.265625 V 4.4980469 Z m 0.265625,0 H 5.953125 V 4.234375 H 5.6894531 Z m 0.2636719,0 V 4.7617187 H 6.2167969 V 4.4980469 Z m 0.2636719,0 h 0.265625 V 4.234375 h -0.265625 z m 0.265625,0 V 4.7617187 H 6.7460937 V 4.4980469 Z m -4.4980469,0 H 1.7207031 V 4.7617187 H 1.984375 Z"
     id="path1" />
  <path
     id="rect3"
     style="fill:#494949;fill-opacity:1;stroke:none;stroke-width:0.264583;stroke-dasharray:none;stroke-dashoffset:0;stroke-opacity:1"
     d="m 1.7131409,4.3660808 c -0.1110748,0 -0.2005045,0.08943 -0.2005045,0.2005046 v 0.5958292 c 0,0.1110748 0.08943,0.2005046 0.2005045,0.2005046 h 0.1720826 c 0.1110747,0 0.2005045,-0.08943 0.2005045,-0.2005046 V 4.5665853 c 0,-0.1110747 -0.08943,-0.2005046 -0.2005045,-0.2005046 z m 0.075448,0.5653402 c 0.00128,-6.45e-5 0.00232,0 0.00362,0 h 0.013953 c 0.041515,0 0.074931,0.033416 0.074931,0.074931 v 0.1152385 c 0,0.041515 -0.033416,0.074931 -0.074931,0.074931 h -0.013953 c -0.041515,0 -0.074931,-0.033416 -0.074931,-0.074931 V 5.0063517 c 0,-0.040218 0.03161,-0.072931 0.071313,-0.074931 z" />
</svg>
