<?xml version="1.0" encoding="UTF-8" standalone="no"?>
<!-- Created with Inkscape (http://www.inkscape.org/) -->

<svg
   width="32"
   height="32"
   viewBox="0 0 8.4666667 8.4666667"
   version="1.1"
   id="svg1"
   sodipodi:docname="imagesfolder.svg"
   inkscape:version="1.3 (0e150ed6c4, 2023-07-21)"
   xmlns:inkscape="http://www.inkscape.org/namespaces/inkscape"
   xmlns:sodipodi="http://sodipodi.sourceforge.net/DTD/sodipodi-0.dtd"
   xmlns="http://www.w3.org/2000/svg"
   xmlns:svg="http://www.w3.org/2000/svg">
  <sodipodi:namedview
     id="namedview1"
     pagecolor="#ffffff"
     bordercolor="#000000"
     borderopacity="0.25"
     inkscape:showpageshadow="2"
     inkscape:pageopacity="0.0"
     inkscape:pagecheckerboard="0"
     inkscape:deskcolor="#d1d1d1"
     inkscape:zoom="11.546875"
     inkscape:cx="5.1962111"
     inkscape:cy="15.805142"
     inkscape:window-width="1920"
     inkscape:window-height="974"
     inkscape:window-x="-11"
     inkscape:window-y="-11"
     inkscape:window-maximized="1"
     inkscape:current-layer="svg1" />
  <defs
     id="defs1" />
  <path
     id="path2"
     style="fill:#e5da10;stroke:#9c940b;stroke-width:0.264583;stroke-linecap:round"
     d="M 4.0244861,3.701 V 2.5529809 c 0,-0.243523 -0.1960492,-0.4395721 -0.4395721,-0.4395721 H 2.0238143 c -0.2435229,0 -0.4395721,0.1960491 -0.4395721,0.4395721 V 3.701 Z" />
  <g
     id="g15"
     transform="matrix(0.54570075,0.15145681,-0.15145681,0.54570075,0.66029136,-0.4952055)">
    <path
       id="rect1-2"
       style="fill:#cbddff;fill-opacity:1;stroke:#003294;stroke-width:0.264583;stroke-linecap:round;stroke-opacity:1"
       d="M 4.8895055,1.2178351 H 10.181131 V 7.5678352 H 4.8894227 Z"
       sodipodi:nodetypes="ccccc" />
    <path
       id="path14"
       style="fill:#004ee1;fill-opacity:1;stroke:#003294;stroke-width:0.26442965;stroke-linecap:butt;stroke-opacity:1;stroke-dasharray:none"
       d="M 4.8435949,6.1242628 7.6217184,3.4784294 10.135303,6.1242628"
       sodipodi:nodetypes="ccc" />
    <circle
       style="fill:#004ee1;fill-opacity:1;stroke:#003294;stroke-width:0.264583;stroke-opacity:1"
       id="path15"
       cx="9.1540823"
       cy="2.554894"
       r="0.60721695" />
  </g>
  <path
     id="rect1"
     style="fill:#e5da10;stroke:#9c940b;stroke-width:0.264583;stroke-linecap:round"
     d="M 2.0238143,3.1717422 H 4.0244861 V 2.6425755 h 2.4183665 c 0.243523,0 0.4395721,0.1960491 0.4395721,0.4395721 v 2.8315382 c 0,0.243523 -0.1960491,0.4395721 -0.4395721,0.4395721 H 2.0238143 c -0.2435229,0 -0.4395721,-0.1960491 -0.4395721,-0.4395721 V 3.6113143 c 0,-0.243523 0.1960492,-0.4395721 0.4395721,-0.4395721 z" />
</svg>
