<?xml version="1.0" encoding="UTF-8" standalone="no"?>
<!-- Created with Inkscape (http://www.inkscape.org/) -->

<svg
   width="32"
   height="32"
   viewBox="0 0 8.4666667 8.4666667"
   version="1.1"
   id="svg1"
   sodipodi:docname="installer.svg"
   inkscape:version="1.3 (0e150ed6c4, 2023-07-21)"
   xmlns:inkscape="http://www.inkscape.org/namespaces/inkscape"
   xmlns:sodipodi="http://sodipodi.sourceforge.net/DTD/sodipodi-0.dtd"
   xmlns="http://www.w3.org/2000/svg"
   xmlns:svg="http://www.w3.org/2000/svg">
  <sodipodi:namedview
     id="namedview1"
     pagecolor="#ffffff"
     bordercolor="#000000"
     borderopacity="0.25"
     inkscape:showpageshadow="2"
     inkscape:pageopacity="0.0"
     inkscape:pagecheckerboard="0"
     inkscape:deskcolor="#d1d1d1"
     inkscape:zoom="11.546875"
     inkscape:cx="5.5426252"
     inkscape:cy="8.0974291"
     inkscape:window-width="1920"
     inkscape:window-height="974"
     inkscape:window-x="-11"
     inkscape:window-y="-11"
     inkscape:window-maximized="1"
     inkscape:current-layer="svg1" />
  <defs
     id="defs1" />
  <rect
     style="fill:#54d5fb;fill-opacity:1;stroke:#494949;stroke-width:0.264583;stroke-dasharray:none;stroke-opacity:1"
     id="rect2"
     width="4.2332921"
     height="6.3499999"
     x="2.116708"
     y="1.0583333"
     rx="0.4374685"
     ry="0.4374685" />
  <path
     style="fill:none;fill-opacity:1;stroke:#494949;stroke-width:0.264583;stroke-dasharray:none;stroke-opacity:1"
     d="M 6.4822915,2.1166667 V 2.778125"
     id="path2"
     sodipodi:nodetypes="cc" />
  <path
     style="fill:none;fill-opacity:1;stroke:#494949;stroke-width:0.264583;stroke-dasharray:none;stroke-opacity:1"
     d="m 6.4822915,2.9104167 v 0.396875"
     id="path3"
     sodipodi:nodetypes="cc" />
  <path
     id="circle13"
     style="fill:#82c341;fill-opacity:1;stroke-width:0.152714"
     d="m 3.6256612,2.4009695 c -0.014698,-5.478e-4 -0.030114,0.00274 -0.043592,0.011048 -0.035793,0.022296 -0.046633,0.069411 -0.024411,0.1052014 L 3.6913403,2.732269 C 3.4648136,2.8990946 3.31703,3.1669423 3.31703,3.4698447 h 1.8326071 c 0,-0.3029024 -0.1477832,-0.5707501 -0.3743107,-0.7375761 L 4.9090087,2.5172147 C 4.9312331,2.4814226 4.920391,2.4343093 4.8846024,2.4120133 4.8486672,2.3898673 4.8016982,2.4011389 4.7794056,2.437006 L 4.6457133,2.6520593 C 4.5217358,2.5894506 4.3820039,2.5532509 4.2336238,2.5532509 c -0.1483798,0 -0.2881115,0.0362 -0.4120894,0.098808 L 3.6872712,2.4370055 c -0.013935,-0.022417 -0.037113,-0.035122 -0.06161,-0.036036 z m 0.2260971,0.6108689 a 0.07635715,0.07635715 0 0 1 0.076141,0.076141 0.07635715,0.07635715 0 0 1 -0.076141,0.076141 0.07635715,0.07635715 0 0 1 -0.076723,-0.076141 0.07635715,0.07635715 0 0 1 0.076723,-0.076141 z m 0.7637314,0 a 0.07635715,0.07635715 0 0 1 0.076141,0.076141 0.07635715,0.07635715 0 0 1 -0.076141,0.076141 0.07635715,0.07635715 0 0 1 -0.076723,-0.076141 0.07635715,0.07635715 0 0 1 0.076723,-0.076141 z M 2.9351643,3.6227072 c -0.1263172,0 -0.2290031,0.102686 -0.2290031,0.2290031 v 0.9160126 c 0,0.1263175 0.102686,0.2290034 0.2290031,0.2290034 0.1263172,0 0.2290032,-0.102686 0.2290032,-0.2290034 V 3.8517103 c 0,-0.1263172 -0.102686,-0.2290031 -0.2290032,-0.2290031 z m 0.3818657,0 v 1.3740191 c 0,0.1686809 0.1370442,0.3057249 0.3057251,0.3057249 v 0.534147 c 0,0.1263173 0.102686,0.2290032 0.2290032,0.2290032 0.1263172,0 0.2290031,-0.102686 0.2290031,-0.2290032 v -0.534147 h 0.3051438 v 0.534147 c 0,0.1263173 0.1032666,0.2290032 0.2295845,0.2290032 0.1263172,0 0.2290027,-0.102686 0.2290027,-0.2290032 v -0.534147 c 0.1686809,0 0.3051447,-0.137044 0.3051447,-0.3057249 V 3.6227072 Z m 2.2144725,0 c -0.1263175,0 -0.229003,0.102686 -0.229003,0.2290031 v 0.9160126 c 0,0.1263175 0.1026895,0.2290034 0.229003,0.2290034 0.1263175,0 0.229003,-0.102686 0.229003,-0.2290034 V 3.8517103 c 0,-0.1263172 -0.1026883,-0.2290031 -0.229003,-0.2290031 z" />
  <g
     id="g6"
     transform="translate(-0.06874154,-0.7217862)">
    <path
       id="path4"
       style="fill:#c9cbcb;fill-opacity:1;stroke:none;stroke-width:0.150276;stroke-dasharray:none;stroke-opacity:1"
       d="M 2.3329634,5.4766319 A 1.425079,1.425079 0 0 0 0.9076906,6.9019047 1.425079,1.425079 0 0 0 2.3329634,8.3268841 1.425079,1.425079 0 0 0 3.7579427,6.9019047 1.425079,1.425079 0 0 0 2.3329634,5.4766319 Z m 0,0.9398113 A 0.48534878,0.48534878 0 0 1 2.8181315,6.9019047 0.48534878,0.48534878 0 0 1 2.3329634,7.3870729 0.48534878,0.48534878 0 0 1 1.8475018,6.9019047 0.48534878,0.48534878 0 0 1 2.3329634,6.4164432 Z" />
    <path
       id="circle4"
       style="fill:#c9cbcb;fill-opacity:0.5;stroke:none;stroke-width:0.0511802;stroke-dasharray:none;stroke-opacity:1"
       d="M 2.3329634,6.4164432 A 0.48534878,0.48534878 0 0 0 1.8475018,6.9019047 0.48534878,0.48534878 0 0 0 2.3329634,7.3870729 0.48534878,0.48534878 0 0 0 2.8181315,6.9019047 0.48534878,0.48534878 0 0 0 2.3329634,6.4164432 Z m 0,0.2054554 A 0.27991939,0.27991939 0 0 1 2.6126761,6.9019047 0.27991939,0.27991939 0 0 1 2.3329634,7.1816175 0.27991939,0.27991939 0 0 1 2.0529572,6.9019047 0.27991939,0.27991939 0 0 1 2.3329634,6.6218986 Z" />
  </g>
</svg>
