<?xml version="1.0" encoding="UTF-8" standalone="no"?>
<!-- Created with Inkscape (http://www.inkscape.org/) -->

<svg
   width="32"
   height="32"
   viewBox="0 0 8.4666667 8.4666667"
   version="1.1"
   id="svg1"
   sodipodi:docname="musicfolder.svg"
   inkscape:version="1.3 (0e150ed6c4, 2023-07-21)"
   xmlns:inkscape="http://www.inkscape.org/namespaces/inkscape"
   xmlns:sodipodi="http://sodipodi.sourceforge.net/DTD/sodipodi-0.dtd"
   xmlns="http://www.w3.org/2000/svg"
   xmlns:svg="http://www.w3.org/2000/svg">
  <sodipodi:namedview
     id="namedview1"
     pagecolor="#ffffff"
     bordercolor="#000000"
     borderopacity="0.25"
     inkscape:showpageshadow="2"
     inkscape:pageopacity="0.0"
     inkscape:pagecheckerboard="0"
     inkscape:deskcolor="#d1d1d1"
     inkscape:zoom="8.1648736"
     inkscape:cx="20.820898"
     inkscape:cy="39.253516"
     inkscape:window-width="1920"
     inkscape:window-height="974"
     inkscape:window-x="-11"
     inkscape:window-y="-11"
     inkscape:window-maximized="1"
     inkscape:current-layer="svg1" />
  <defs
     id="defs1" />
  <path
     id="path2"
     style="fill:#e5da10;stroke:#9c940b;stroke-width:0.264583;stroke-linecap:round"
     d="M 4.0244861,3.701 V 2.5529809 c 0,-0.243523 -0.1960492,-0.4395721 -0.4395721,-0.4395721 H 2.0238143 c -0.2435229,0 -0.4395721,0.1960491 -0.4395721,0.4395721 V 3.701 Z" />
  <g
     id="g27"
     transform="matrix(0.74954513,0.20803292,-0.20803292,0.74954513,-1.537086,-2.1082336)"
     style="stroke:#946200;stroke-width:0.403173;stroke-dasharray:none;stroke-opacity:1">
    <circle
       style="fill:#ffc041;fill-opacity:1;stroke:#946200;stroke-width:0.403173;stroke-dasharray:none;stroke-opacity:1"
       id="path26"
       cx="7.5501127"
       cy="4.743166"
       r="0.44682002" />
    <path
       style="fill:none;stroke:#946200;stroke-width:0.403173;stroke-dasharray:none;stroke-opacity:1"
       d="M 7.9969327,4.7431658 V 2.1768155 l 0.8191701,0.81917"
       id="path27"
       sodipodi:nodetypes="ccc" />
  </g>
  <path
     id="rect1"
     style="fill:#e5da10;stroke:#9c940b;stroke-width:0.264583;stroke-linecap:round"
     d="M 2.0238143,3.1717422 H 4.0244861 V 2.6425755 h 2.4183665 c 0.243523,0 0.4395721,0.1960491 0.4395721,0.4395721 v 2.8315382 c 0,0.243523 -0.1960491,0.4395721 -0.4395721,0.4395721 H 2.0238143 c -0.2435229,0 -0.4395721,-0.1960491 -0.4395721,-0.4395721 V 3.6113143 c 0,-0.243523 0.1960492,-0.4395721 0.4395721,-0.4395721 z" />
</svg>
