<?xml version="1.0" encoding="UTF-8" standalone="no"?>
<!-- Created with Inkscape (http://www.inkscape.org/) -->

<svg
   width="32"
   height="32"
   viewBox="0 0 8.4666667 8.4666667"
   version="1.1"
   id="svg1"
   sodipodi:docname="pdffile.svg"
   inkscape:version="1.3 (0e150ed6c4, 2023-07-21)"
   xmlns:inkscape="http://www.inkscape.org/namespaces/inkscape"
   xmlns:sodipodi="http://sodipodi.sourceforge.net/DTD/sodipodi-0.dtd"
   xmlns="http://www.w3.org/2000/svg"
   xmlns:svg="http://www.w3.org/2000/svg">
  <sodipodi:namedview
     id="namedview1"
     pagecolor="#ffffff"
     bordercolor="#000000"
     borderopacity="0.25"
     inkscape:showpageshadow="2"
     inkscape:pageopacity="0.0"
     inkscape:pagecheckerboard="0"
     inkscape:deskcolor="#d1d1d1"
     inkscape:zoom="8.1648736"
     inkscape:cx="35.395526"
     inkscape:cy="28.108212"
     inkscape:window-width="1920"
     inkscape:window-height="974"
     inkscape:window-x="-11"
     inkscape:window-y="-11"
     inkscape:window-maximized="1"
     inkscape:current-layer="svg1" />
  <defs
     id="defs1" />
  <path
     id="rect1"
     style="fill:#e5e5e5;fill-opacity:1;stroke:#494949;stroke-width:0.264583;stroke-linecap:round;stroke-opacity:1"
     d="m 1.5875414,1.0583333 h 3.7041253 l 1.5875,1.5875 V 7.4083334 H 1.5874586 Z"
     sodipodi:nodetypes="cccccc" />
  <path
     id="path1"
     style="fill:none;fill-opacity:1;stroke:#494949;stroke-width:0.264583;stroke-linecap:round;stroke-opacity:1"
     d="m 5.2916667,1.0583333 v 1.5875 h 1.5875" />
  <g
     id="g2">
    <rect
       style="fill:#df2f2f;fill-opacity:1;stroke:none;stroke-width:0.515352"
       id="rect2"
       width="3.4219759"
       height="1.7822789"
       x="0.57356977"
       y="1.814684"
       ry="0"
       rx="0" />
    <path
       d="m 1.6999078,2.52097 q 0,0.064252 -0.022488,0.1259338 -0.022488,0.061039 -0.064252,0.1028031 -0.057184,0.056542 -0.1278613,0.085455 -0.070035,0.028913 -0.1747653,0.028913 H 1.1569788 V 3.1756973 H 0.91025131 V 2.2189858 H 1.3163236 q 0.091238,0 0.1535622,0.016063 0.062967,0.01542 0.1111559,0.046904 0.057827,0.037909 0.088025,0.09702 0.030841,0.059112 0.030841,0.1419969 z m -0.2550803,0.00578 q 0,-0.040479 -0.021846,-0.069392 -0.021846,-0.029556 -0.050759,-0.041121 -0.038551,-0.01542 -0.075175,-0.016706 -0.036624,-0.00193 -0.097663,-0.00193 h -0.042406 v 0.2865637 h 0.070677 q 0.062967,0 0.1034457,-0.00771 0.041121,-0.00771 0.06875,-0.030841 0.023773,-0.020561 0.034053,-0.048831 0.010923,-0.028913 0.010923,-0.070035 z M 2.778698,2.6983053 q 0,0.1336441 -0.061039,0.2396598 -0.061039,0.1053732 -0.1542046,0.1619149 -0.070035,0.042406 -0.1535622,0.059112 -0.083528,0.016706 -0.197896,0.016706 H 1.8746731 V 2.2189858 h 0.3469605 q 0.1169385,0 0.2017511,0.019918 0.084813,0.019276 0.1426393,0.055257 0.098948,0.060397 0.1554898,0.1631999 0.057184,0.1021606 0.057184,0.2409448 z m -0.2550802,-0.00193 q 0,-0.09445 -0.034696,-0.1612724 -0.034054,-0.067465 -0.1085858,-0.1053732 -0.037909,-0.018633 -0.077745,-0.025058 -0.039194,-0.00707 -0.1188661,-0.00707 h -0.062324 v 0.5988282 h 0.062324 q 0.088025,0 0.1291465,-0.00771 0.041121,-0.00835 0.080315,-0.029556 0.067464,-0.038551 0.098948,-0.1028032 0.031483,-0.064894 0.031483,-0.1599873 z M 3.6525246,2.4040314 H 3.2123988 V 2.5820093 H 3.6203986 V 2.7670549 H 3.2123988 V 3.1756973 H 2.9669563 V 2.2189858 h 0.6855683 z"
       id="text2"
       style="font-weight:bold;font-size:1.31588px;-inkscape-font-specification:'sans-serif Bold';fill:#ffffff;stroke-width:0.164485"
       aria-label="PDF" />
  </g>
</svg>
