<?xml version="1.0" encoding="UTF-8" standalone="no"?>
<!-- Created with Inkscape (http://www.inkscape.org/) -->

<svg
   width="32"
   height="32"
   viewBox="0 0 8.4666667 8.4666667"
   version="1.1"
   id="svg1"
   sodipodi:docname="settingsfile.svg"
   inkscape:version="1.3 (0e150ed6c4, 2023-07-21)"
   xmlns:inkscape="http://www.inkscape.org/namespaces/inkscape"
   xmlns:sodipodi="http://sodipodi.sourceforge.net/DTD/sodipodi-0.dtd"
   xmlns="http://www.w3.org/2000/svg"
   xmlns:svg="http://www.w3.org/2000/svg">
  <sodipodi:namedview
     id="namedview1"
     pagecolor="#ffffff"
     bordercolor="#000000"
     borderopacity="0.25"
     inkscape:showpageshadow="2"
     inkscape:pageopacity="0.0"
     inkscape:pagecheckerboard="0"
     inkscape:deskcolor="#d1d1d1"
     inkscape:zoom="16.329747"
     inkscape:cx="11.390256"
     inkscape:cy="15.462579"
     inkscape:window-width="1920"
     inkscape:window-height="974"
     inkscape:window-x="-11"
     inkscape:window-y="-11"
     inkscape:window-maximized="1"
     inkscape:current-layer="svg1" />
  <defs
     id="defs1" />
  <path
     id="rect1"
     style="fill:#e5e5e5;fill-opacity:1;stroke:#494949;stroke-width:0.264583;stroke-linecap:round;stroke-opacity:1"
     d="m 1.5875414,1.0583333 h 3.7041253 l 1.5875,1.5875 V 7.4083334 H 1.5874586 Z"
     sodipodi:nodetypes="cccccc" />
  <path
     id="path1"
     style="fill:none;fill-opacity:1;stroke:#494949;stroke-width:0.264583;stroke-linecap:round;stroke-opacity:1"
     d="m 5.2916667,1.0583333 v 1.5875 h 1.5875" />
  <path
     style="fill:#777777;fill-opacity:1;stroke-width:0.139888"
     d="M 3.9535565,2.8935693 A 0.13988843,0.13988843 0 0 0 3.8136681,3.0334578 V 3.518969 A 1.3331367,1.3331367 0 0 0 3.587169,3.6126833 L 3.2442785,3.2697927 a 0.13988843,0.13988843 0 0 0 -0.1986307,0 l -0.3945291,0.394529 a 0.13988843,0.13988843 0 0 0 0,0.1986307 l 0.3428906,0.3428905 c -0.016787,0.032174 -0.032153,0.065605 -0.04754,0.099179 A 1.2478048,1.2478048 0 0 0 2.9002951,4.432342 H 2.4147838 A 0.13988843,0.13988843 0 0 0 2.2748954,4.5722305 V 5.1317841 A 0.13988843,0.13988843 0 0 0 2.4147838,5.2716725 H 2.900295 A 1.3331367,1.3331367 0 0 0 2.994009,5.4981717 L 2.6511187,5.8410622 a 0.13988843,0.13988843 0 0 0 0,0.1986306 l 0.3945291,0.3945291 a 0.13988843,0.13988843 0 0 0 0.1986307,0 L 3.587169,6.0913313 a 1.3331367,1.3331367 0 0 0 0.2264991,0.093714 V 6.6705568 A 0.13988843,0.13988843 0 0 0 3.9535565,6.8104453 H 4.5131102 A 0.13988843,0.13988843 0 0 0 4.6529986,6.6705568 V 6.1850457 a 1.3331367,1.3331367 0 0 0 0.2264991,-0.093714 l 0.3428905,0.3428906 a 0.13988843,0.13988843 0 0 0 0.1986306,0 L 5.815548,6.0396928 a 0.13988843,0.13988843 0 0 0 0,-0.1986306 L 5.4726574,5.4981717 A 1.3331367,1.3331367 0 0 0 5.5663717,5.2716725 H 6.0518829 A 0.13988843,0.13988843 0 0 0 6.1917713,5.1317841 V 4.5722305 A 0.13988843,0.13988843 0 0 0 6.0518829,4.432342 H 5.5663717 A 1.3331367,1.3331367 0 0 0 5.4726574,4.2058429 L 5.815548,3.8629524 a 0.13988843,0.13988843 0 0 0 0,-0.1986307 L 5.4210188,3.2697927 a 0.13988843,0.13988843 0 0 0 -0.1986306,0 L 4.8794977,3.6126833 A 1.3331367,1.3331367 0 0 0 4.6529986,3.518969 V 3.0334578 A 0.13988843,0.13988843 0 0 0 4.5131102,2.8935693 Z M 4.2333333,4.1525652 A 0.69944209,0.69944209 0 0 1 4.9327754,4.8520072 0.69944209,0.69944209 0 0 1 4.2333333,5.5514494 0.69944209,0.69944209 0 0 1 3.5338912,4.8520072 0.69944209,0.69944209 0 0 1 4.2333333,4.1525652 Z"
     id="path1-7" />
</svg>
